<svg width="125" height="49" viewBox="0 0 125 49" fill="none" xmlns="http://www.w3.org/2000/svg">
<path d="M92.1886 6.26239C92.1886 12.6534 96.1578 16.488 104.096 18.5062L112.505 20.4572C120.04 22.2063 124.615 26.5118 124.615 33.5083C124.682 36.5356 123.673 39.4956 121.856 41.9175C121.856 34.921 118.224 31.1537 109.545 28.8664L101.271 26.9827C94.6105 25.5027 89.4977 21.9372 89.4977 14.3352C89.4977 11.4425 90.4395 8.5497 92.1886 6.26239Z" fill="black"/>
<path d="M116.676 31.7591C120.242 34.0464 121.856 37.2756 121.856 41.9175C118.829 45.7521 113.649 47.8375 107.527 47.8375C97.2341 47.8375 89.9013 42.7247 88.354 33.9119H98.2432C99.5214 37.9483 102.885 39.832 107.46 39.832C112.909 39.8992 116.609 36.9392 116.676 31.7591ZM92.1886 6.19508C95.0814 2.42775 100.06 0.140442 106.114 0.140442C116.676 0.140442 122.731 5.72416 124.278 13.5279H114.725C113.649 10.4333 111.025 8.01147 106.249 8.01147C101.069 8.07875 97.5705 11.0388 97.3687 15.748C93.9021 13.8362 92.0541 10.097 92.1886 6.19508Z" fill="black" fill-opacity="0.5"/>
<path fill-rule="evenodd" clip-rule="evenodd" d="M88.2696 0.443359H88.3048L71.696 48.1405H61.4425L44.8992 0.443359H54.7596L66.5529 36.3145L66.5718 36.2572L71.6959 48.0395L88.2696 0.443359Z" fill="black" fill-opacity="0.5"/>
<path d="M78.4608 0.342346L61.5556 48.0394H71.7452L88.354 0.342346H78.4608Z" fill="black"/>
<path d="M29.9155 0.241394H39.7069V47.9385L29.9155 31.6847V0.241394Z" fill="black" fill-opacity="0.5"/>
<path d="M10.7117 48.0395L0.920307 48.0395L0.920311 0.342395L10.7117 16.5962L10.7117 48.0395Z" fill="black" fill-opacity="0.5"/>
<path fill-rule="evenodd" clip-rule="evenodd" d="M39.7069 47.9385L39.7066 47.9385V0.241406H29.9153V31.6847L39.7066 47.9385L29.8792 47.9385L10.748 16.5554V47.9385H10.7117L10.7117 16.5962L0.920354 0.342382L0.92035 47.9385H0.920288V0.241394H10.748L29.912 31.69V0.241394H39.7069V47.9385Z" fill="black"/>
</svg>
